<?xml version="1.0" encoding="utf-8"?>
<!-- Generator: Adobe Illustrator 26.3.1, SVG Export Plug-In . SVG Version: 6.00 Build 0)  -->
<svg version="1.1" id="Layer_2_00000036966789477482038020000017723659354972476338_"
	 xmlns="http://www.w3.org/2000/svg" xmlns:xlink="http://www.w3.org/1999/xlink" x="0px" y="0px" viewBox="0 0 577.8 128.5"
	 style="enable-background:new 0 0 577.8 128.5;" xml:space="preserve">
<style type="text/css">
	.st0{fill:#FFFFFF;}
</style>
<g id="Layer_1-2">
	<g>
		<g>
			<g>
				<polygon class="st0" points="134.4,53.4 134.4,96.7 152.7,96.7 152.7,91.7 139.5,91.7 139.5,77.5 151.2,77.5 151.2,72.4 
					139.5,72.4 139.5,58.5 152.7,58.5 152.7,53.4 				"/>
				<path class="st0" d="M57.9,73.1l-4.2-2c-2.9-1.4-3.5-2.5-3.5-6.8c0-2.2,0.4-3.9,1.3-5c0.7-0.8,1.6-1.2,2.7-1.2
					c1.3,0,2.2,0.5,2.9,1.3c0.9,1.3,1.1,2.9,1.1,5.1v0.2h5v-0.2c0-4.3-0.7-6.9-2.5-8.9C59.1,53.9,57,53,54.3,53
					c-2.5,0-4.6,0.9-6.1,2.5c-1.9,2-2.9,5.1-2.9,8.9c0,6.5,1.2,9,5.2,10.9l4.3,2c2.9,1.4,3.6,2.8,3.6,7.7c0,2.7-0.2,4.4-1.2,5.6
					c-0.7,0.9-1.7,1.3-3,1.3c-1.2,0-2.3-0.4-2.9-1.2c-0.9-1.1-1.2-2.5-1.2-5.5v-0.2h-5v0.2c0,4.7,0.6,7.2,2.4,9.2
					c1.5,1.8,3.8,2.7,6.8,2.7s5.2-0.9,6.8-2.7c1.7-1.9,2.4-4.6,2.4-9.5C63.3,78.6,62.5,75.2,57.9,73.1"/>
				<polygon class="st0" points="5.2,91.7 5.2,53.4 0,53.4 0,96.7 18.4,96.7 18.4,91.7 				"/>
				<polygon class="st0" points="117.6,91.7 117.6,53.4 112.4,53.4 112.4,96.7 130.8,96.7 130.8,91.7 				"/>
				<polygon class="st0" points="95.9,91.7 95.9,53.4 90.7,53.4 90.7,96.7 109.1,96.7 109.1,91.7 				"/>
				<path class="st0" d="M87.2,96.4l-8.7-42.9l0-0.2h-4.7l0,0.2l-8.8,42.9l-0.1,0.2H70l0-0.2l1.8-9.9h8.4l1.8,9.9l0,0.2h5.2
					C87.2,96.7,87.2,96.4,87.2,96.4z M72.3,81.9l0-0.2L76,60.9l3.7,20.8l0,0.2H72.3L72.3,81.9z"/>
				<path class="st0" d="M43.6,96.4l-8.7-42.9l0-0.2h-4.7l0,0.2l-8.8,42.9l0,0.2h5.2l0-0.2l1.8-9.9h8.4l1.8,9.9l0,0.2h5.2
					C43.6,96.7,43.6,96.4,43.6,96.4z M28.7,81.9l0-0.2l3.7-20.8l3.7,20.8l0,0.2C36.2,81.9,28.7,81.9,28.7,81.9z"/>
				<path class="st0" d="M6.5,121.3c-0.6,0.6-1.4,0.9-2.5,0.9c-1.3,0-2.2-0.5-2.8-1.2C0.1,119.8,0,118,0,113.9s0.1-5.9,1.2-7.1
					c0.6-0.7,1.5-1.2,2.8-1.2c1.1,0,1.9,0.3,2.6,1c0.8,0.7,1.1,1.9,1.2,3.2h-2c0-0.7-0.1-1.4-0.5-1.9c-0.3-0.3-0.7-0.6-1.3-0.6
					s-1,0.2-1.3,0.6c-0.6,0.8-0.7,2.1-0.7,5.9s0.1,5.1,0.7,5.9c0.3,0.4,0.7,0.6,1.3,0.6s1-0.2,1.3-0.6c0.4-0.5,0.5-1.1,0.5-1.8h2
					C7.7,119.4,7.3,120.6,6.5,121.3"/>
				<path class="st0" d="M16.3,121c-0.6,0.7-1.5,1.2-2.8,1.2s-2.2-0.5-2.8-1.2c-1.1-1.2-1.2-3.1-1.2-7.1s0.1-5.9,1.2-7.1
					c0.6-0.7,1.5-1.2,2.8-1.2s2.2,0.5,2.8,1.2c1.1,1.2,1.2,3.1,1.2,7.1S17.4,119.8,16.3,121 M14.8,108c-0.3-0.4-0.7-0.6-1.3-0.6
					s-1.1,0.2-1.3,0.6c-0.6,0.8-0.7,2.1-0.7,5.9s0.1,5.1,0.7,5.9c0.3,0.4,0.7,0.6,1.3,0.6s1.1-0.2,1.3-0.6c0.6-0.8,0.7-2.1,0.7-5.9
					S15.4,108.8,14.8,108"/>
				<polygon class="st0" points="19.6,122 19.6,105.8 21.5,105.8 21.5,120.2 25.9,120.2 25.9,122 				"/>
				<polygon class="st0" points="27.7,122 27.7,105.8 29.7,105.8 29.7,120.2 34,120.2 34,122 				"/>
				<polygon class="st0" points="35.8,122 35.8,105.8 42.1,105.8 42.1,107.6 37.8,107.6 37.8,113 41.5,113 41.5,114.8 37.8,114.8 
					37.8,120.2 42.1,120.2 42.1,122 				"/>
				<path class="st0" d="M47.9,122.2c-1.3,0-2.2-0.5-2.8-1.2c-1.1-1.2-1.2-3.1-1.2-7.1s0.1-5.9,1.2-7.1c0.6-0.7,1.5-1.2,2.8-1.2
					c1.1,0,2,0.4,2.6,1c0.8,0.8,1.1,1.9,1.1,3.2h-2c0-1.1-0.3-2.5-1.8-2.5c-0.6,0-1,0.2-1.3,0.6c-0.6,0.8-0.7,2.1-0.7,5.9
					s0.1,5.1,0.7,5.9c0.3,0.4,0.7,0.6,1.3,0.6c1.1,0,1.8-0.9,1.8-2.2V115h-1.8v-1.6h3.8v4.8C51.7,120.8,50,122.2,47.9,122.2"/>
				<polygon class="st0" points="53.8,122 53.8,105.8 60,105.8 60,107.6 55.7,107.6 55.7,113 59.4,113 59.4,114.8 55.7,114.8 
					55.7,120.2 60,120.2 60,122 				"/>
				<path class="st0" d="M72.1,121c-0.6,0.7-1.5,1.2-2.8,1.2s-2.2-0.5-2.8-1.2c-1.1-1.2-1.2-3.1-1.2-7.1s0.1-5.9,1.2-7.1
					c0.6-0.7,1.5-1.2,2.8-1.2s2.2,0.5,2.8,1.2c1.1,1.2,1.2,3.1,1.2,7.1S73.2,119.8,72.1,121 M70.6,108c-0.3-0.4-0.7-0.6-1.3-0.6
					s-1.1,0.2-1.3,0.6c-0.6,0.8-0.7,2.1-0.7,5.9s0.1,5.1,0.7,5.9c0.3,0.4,0.7,0.6,1.3,0.6s1-0.2,1.3-0.6c0.6-0.8,0.7-2.1,0.7-5.9
					S71.2,108.8,70.6,108"/>
				<polygon class="st0" points="77.4,107.6 77.4,113 81.1,113 81.1,114.8 77.4,114.8 77.4,122 75.4,122 75.4,105.8 81.7,105.8 
					81.7,107.6 				"/>
				<polygon class="st0" points="90.9,107.6 90.9,122 88.9,122 88.9,107.6 86.2,107.6 86.2,105.8 93.6,105.8 93.6,107.6 				"/>
				<polygon class="st0" points="100.6,122 100.6,114.7 97,114.7 97,122 95,122 95,105.8 97,105.8 97,112.9 100.6,112.9 
					100.6,105.8 102.5,105.8 102.5,122 				"/>
				<polygon class="st0" points="104.9,122 104.9,105.8 111.1,105.8 111.1,107.6 106.8,107.6 106.8,113 110.5,113 110.5,114.8 
					106.8,114.8 106.8,120.2 111.1,120.2 111.1,122 				"/>
				<path class="st0" d="M123.7,122l-0.8-3.8h-3.8l-0.8,3.8h-2l3.8-16.2h1.9l3.8,16.2H123.7L123.7,122z M121.1,109l-1.5,7.5h3
					L121.1,109z"/>
				<path class="st0" d="M133.4,122l-2.2-7h-1.8v7h-2v-16.2h3.7c2.5,0,3.8,1.1,3.8,4.6c0,2.2-0.5,3.6-1.9,4.2l2.5,7.3L133.4,122
					 M131.1,107.6h-1.7v5.8h1.7c1.5,0,1.8-1.2,1.8-2.9S132.6,107.6,131.1,107.6"/>
				<polygon class="st0" points="141,107.6 141,122 139.1,122 139.1,107.6 136.3,107.6 136.3,105.8 143.7,105.8 143.7,107.6 				"/>
				<path class="st0" d="M151.4,121.2c-0.6,0.6-1.6,1-2.9,1s-2.2-0.3-2.8-1c-0.8-0.8-1-1.7-1-3.4h1.9c0,1.1,0.1,1.7,0.6,2.1
					c0.3,0.3,0.7,0.5,1.3,0.5c0.7,0,1.1-0.2,1.4-0.5c0.4-0.5,0.5-1.1,0.5-2.2c0-1.9-0.3-2.4-1.6-3L147,114c-1.7-0.7-2.2-1.6-2.2-4.1
					c0-1.4,0.4-2.6,1.2-3.3c0.6-0.6,1.5-0.9,2.6-0.9c1.2,0,2.1,0.3,2.7,0.9c0.8,0.8,1.1,1.8,1.1,3.3h-1.9c0-0.9-0.1-1.5-0.5-1.9
					c-0.3-0.3-0.7-0.5-1.3-0.5c-0.6,0-1,0.2-1.2,0.5c-0.4,0.4-0.6,1.1-0.6,1.9c0,1.6,0.2,2.1,1.6,2.6l1.8,0.8
					c1.9,0.8,2.3,1.9,2.3,4.4C152.4,119.4,152.1,120.4,151.4,121.2"/>
			</g>
			<polygon class="st0" points="130.6,44.3 96.8,44.3 75.8,23.2 92.6,6.3 			"/>
			<polygon class="st0" points="21,44.3 54.7,44.3 75.8,23.2 58.9,6.3 			"/>
		</g>
		<rect x="201.7" class="st0" width="1.3" height="128.5"/>
		<g>
			<g>
				<path class="st0" d="M414.9,35.4V22.7h2.5v12.8c0,2.8,1.9,4.5,4.9,4.5s4.9-1.7,4.9-4.5V22.7h2.4v12.7c0,4.3-2.9,6.9-7.4,6.9
					S414.9,39.7,414.9,35.4z"/>
				<path class="st0" d="M433.8,28.1h2.4v2.6c1-1.7,2.7-2.9,4.8-2.9c2.9,0,5,2,5,4.9v9.2h-2.4v-8.8c0-1.9-1.2-3.2-3.2-3.2
					c-2.6,0-4.3,2.2-4.3,5.9v6.1h-2.4L433.8,28.1L433.8,28.1z"/>
				<path class="st0" d="M449.5,23.8c0-0.9,0.7-1.7,1.6-1.7s1.7,0.7,1.7,1.7s-0.7,1.6-1.7,1.6S449.5,24.8,449.5,23.8z M450,28.1h2.4
					v14H450C450,42.1,450,28.1,450,28.1z"/>
				<path class="st0" d="M454.9,28.1h2.4l3.9,11.2l3.9-11.2h2.4l-5.1,14H460L454.9,28.1L454.9,28.1z"/>
				<path class="st0" d="M482.2,35.5h-11c0.2,2.8,1.9,4.7,4.5,4.7c2.1,0,3.6-1,4-2.7l2.2,0.5c-0.7,2.7-3,4.3-6.2,4.3
					c-4.2,0-6.8-3.2-6.8-7.2s2.5-7.2,6.8-7.2s6.7,3,6.7,6.6C482.2,34.8,482.2,35.3,482.2,35.5L482.2,35.5z M479.7,33.5
					c-0.2-2.1-1.7-3.7-4.2-3.7c-2.2,0-3.8,1.4-4.3,3.7H479.7L479.7,33.5z"/>
				<path class="st0" d="M491.9,30.1c-2.2,0-4,2.1-4,6.7v5.3h-2.4v-14h2.4v2.8c0.8-1.8,2.6-3,4.4-3c0.6,0,1.1,0.1,1.6,0.2l-0.1,2.3
					C493.2,30.2,492.5,30.1,491.9,30.1L491.9,30.1z"/>
				<path class="st0" d="M494.9,38.2l2-0.9c0.5,1.6,1.6,3,3.8,3c1.7,0,2.8-1,2.8-2.1c0-3.6-8-1.3-8-6.6c0-2.2,1.9-3.7,4.9-3.7
					c2.5,0,4.6,1.4,5.2,3.4l-2,0.9c-0.4-1.4-1.8-2.4-3.3-2.4c-1.6,0-2.6,0.6-2.6,1.7c0,3,8.1,0.8,8.1,6.6c0,2.4-2,4.2-5.1,4.2
					C497.3,42.3,495.5,40.2,494.9,38.2L494.9,38.2z"/>
				<path class="st0" d="M508.6,23.8c0-0.9,0.7-1.7,1.6-1.7s1.7,0.7,1.7,1.7s-0.7,1.6-1.7,1.6S508.6,24.8,508.6,23.8z M509.1,28.1
					h2.4v14h-2.4C509.1,42.1,509.1,28.1,509.1,28.1z"/>
				<path class="st0" d="M520.8,42.3c-2.4,0-4.1-1.3-4.1-4.4v-7.7h-2.6v-2.1h2.6v-4.2h2.3v4.2h3.7v2.1H519V38c0,1.5,0.8,2.2,2,2.2
					c0.5,0,1.2-0.1,1.7-0.4l0.2,2.2C522.3,42.2,521.5,42.3,520.8,42.3L520.8,42.3z"/>
				<path class="st0" d="M537.6,28.1l-7.3,19h-2.4l2-5.2l-5.5-13.8h2.5l4.1,10.7l4.1-10.7L537.6,28.1L537.6,28.1z"/>
			</g>
			<g>
				<path class="st0" d="M414.5,88.3l2.4-0.8c0.4,2.7,2.5,4.5,5,4.5s4.4-1.2,4.4-3.2c0-5.2-11-2.5-11-9.3c0-3,2.7-5.1,6.5-5.1
					c3.5,0,6.3,1.9,6.8,4.8l-2.3,0.9c-0.4-2.1-2-3.4-4.5-3.4s-4,1.1-4,2.8c0,4.4,11.1,1.6,11.1,9.3c0,3.3-2.8,5.5-7,5.5
					C418.2,94.3,415.2,91.9,414.5,88.3L414.5,88.3z"/>
				<path class="st0" d="M431.7,75.8c0-0.9,0.7-1.7,1.6-1.7s1.7,0.7,1.7,1.7s-0.7,1.6-1.7,1.6S431.7,76.7,431.7,75.8z M432.1,80.1
					h2.4v14h-2.4V80.1z"/>
				<path class="st0" d="M438.6,80.1h2.4v2.6c1-1.7,2.7-2.8,4.8-2.8c2.9,0,5,2,5,4.9v9.2h-2.4v-8.8c0-1.9-1.2-3.2-3.2-3.2
					c-2.6,0-4.3,2.2-4.3,5.9v6.1h-2.4L438.6,80.1L438.6,80.1z"/>
				<path class="st0" d="M467.5,80.1v13.3c0,3.5-2.7,5.9-6.5,5.9c-3.2,0-5.8-1.7-6.2-4.2l2.3-0.4c0.1,1.6,1.8,2.6,3.9,2.6
					c2.5,0,4.2-1.5,4.2-3.7v-1.9c-0.6,1.2-2.5,2-4.5,2c-4.3,0-6.6-3-6.6-6.9s2.4-6.9,6.6-6.9c1.9,0,3.7,0.9,4.5,2.1v-1.9H467.5
					L467.5,80.1z M465.3,86.8c0-2.9-1.8-4.8-4.4-4.8s-4.5,1.9-4.5,4.8s1.7,4.8,4.5,4.8S465.3,89.7,465.3,86.8z"/>
				<path class="st0" d="M482.5,85.1v8.9h-2.3v-2.4c-0.8,1.6-2.6,2.6-4.6,2.6c-2.8,0-4.7-1.7-4.7-4.1c0-2.7,2.2-4.2,6.6-4.6l2.7-0.3
					V85c0-1.9-1.4-3.1-3.4-3.1c-1.9,0-3.3,1.1-3.5,3l-2.2-0.4c0.4-2.8,2.7-4.6,5.6-4.6C480.1,79.9,482.5,81.9,482.5,85.1L482.5,85.1
					z M480.2,87.7v-0.7l-2.7,0.3c-2.8,0.3-4.3,1.3-4.3,2.7c0,1.3,1.1,2.2,2.7,2.2C478.6,92.3,480.2,90.5,480.2,87.7z"/>
				<path class="st0" d="M486.6,80.1h2.4v2c0.8-1.3,2.6-2.2,4.6-2.2c4.3,0,6.7,3.1,6.7,7.2s-2.4,7.2-6.7,7.2c-1.8,0-3.6-0.9-4.5-2.2
					v7h-2.4C486.6,99.1,486.6,80.1,486.6,80.1z M497.8,87.1c0-3.1-1.8-5.1-4.6-5.1s-4.5,2-4.5,5.1s1.8,5.1,4.5,5.1
					S497.8,90.2,497.8,87.1z"/>
				<path class="st0" d="M502.7,87.1c0-4.2,2.9-7.2,7.1-7.2c4.2,0,7.1,3,7.1,7.2s-3,7.2-7.1,7.2S502.7,91.3,502.7,87.1z M514.5,87.1
					c0-3-1.9-5.1-4.7-5.1s-4.7,2.1-4.7,5.1s1.9,5.1,4.7,5.1S514.5,90.1,514.5,87.1z"/>
				<path class="st0" d="M526.6,82.1c-2.2,0-4,2.1-4,6.7V94h-2.3v-14h2.3v2.8c0.8-1.8,2.6-3.1,4.3-3.1c0.6,0,1.1,0.1,1.6,0.2
					l-0.1,2.3C527.9,82.2,527.2,82,526.6,82.1L526.6,82.1z"/>
				<path class="st0" d="M543,87.5h-11c0.2,2.8,1.9,4.7,4.5,4.7c2.1,0,3.6-1,4-2.7l2.2,0.5c-0.7,2.7-3,4.3-6.2,4.3
					c-4.2,0-6.8-3.2-6.8-7.2s2.5-7.2,6.8-7.2s6.7,3,6.7,6.6C543.1,86.8,543.1,87.3,543,87.5L543,87.5z M540.6,85.5
					c-0.2-2.1-1.7-3.7-4.2-3.7c-2.2,0-3.8,1.4-4.3,3.7H540.6L540.6,85.5z"/>
			</g>
			<path class="st0" d="M333.2,36.7h-11.5L296.8,107h12.5l5.8-16.1c0,0,5.5,3,12.2,3s12.2-3,12.2-3l5.8,16.1H358L333.2,36.7
				L333.2,36.7z M327.4,83.3c-2.9,0-7.9-1-10.5-3.4l10.5-29.2L337.9,80C335.4,82.3,330.3,83.3,327.4,83.3z"/>
			<path class="st0" d="M375.1,32.3c-5.6,0-10.3,3.5-10.3,8.8c0,15.2,34.5,6.6,34.5,33.3c0,11.3-9.5,19.6-22.3,19.6
				c-14,0-23.8-10.1-23.8-24.2h11.1c0,8.4,5.6,13.3,13,13.3c6.8,0,10.8-4.4,10.8-9.6c0-15-34.6-9-34.6-31.3
				c0-12.8,9.5-20.8,21.6-20.8c13,0,22.3,8.8,22.3,22.3h-11.1C386.2,36.7,380.6,32.3,375.1,32.3L375.1,32.3z"/>
			<path class="st0" d="M252.1,68V22.6h12.2V69c0,8.6,5.2,13.7,12.7,13.7s12.8-5.1,12.8-13.7V22.6h12V68c0,15.7-10,26-24.8,26
				S252.1,83.7,252.1,68L252.1,68z"/>
			<g>
				<path class="st0" d="M443.1,63c0-4.2,2.9-7.2,7.1-7.2s7.1,3,7.1,7.2s-3,7.2-7.1,7.2S443.1,67.1,443.1,63z M454.8,63
					c0-3-1.9-5.1-4.7-5.1s-4.7,2.1-4.7,5.1s1.9,5.1,4.7,5.1S454.8,65.9,454.8,63z"/>
				<path class="st0" d="M461.6,58.1h-2.4V56h2.4v-1.3c0-3.1,1.7-4.7,4.1-4.7c0.6,0,1.3,0.1,1.9,0.2l-0.1,2.1
					c-0.5-0.2-1-0.3-1.5-0.3c-1.2,0-2.1,1-2.1,2.5V56h3.6v2.1h-3.6v11.9h-2.4L461.6,58.1L461.6,58.1z"/>
				<path class="st0" d="M482.8,70.2c-2.4,0-4.1-1.3-4.1-4.4v-7.7h-2.6V56h2.6v-4.2h2.4V56h3.7v2.1H481v7.8c0,1.5,0.8,2.2,2,2.2
					c0.5,0,1.2-0.1,1.7-0.4l0.2,2.2C484.3,70.1,483.5,70.2,482.8,70.2L482.8,70.2z"/>
				<path class="st0" d="M488.2,50.3h2.4v8.4c1-2,2.7-3,4.8-3c3.2,0,5.2,2,5.2,5v9.2h-2.4v-8.8c0-2-1.3-3.3-3.4-3.3
					c-2.6,0-4.2,2.3-4.2,6.1v6h-2.4L488.2,50.3L488.2,50.3z"/>
				<path class="st0" d="M517.3,63.4h-11c0.2,2.8,1.9,4.7,4.5,4.7c2.1,0,3.6-1,4-2.7l2.2,0.5c-0.7,2.7-3,4.3-6.2,4.3
					c-4.2,0-6.8-3.2-6.8-7.2s2.5-7.2,6.8-7.2c4.2,0,6.7,3,6.7,6.6C517.3,62.7,517.3,63.2,517.3,63.4L517.3,63.4z M514.8,61.4
					c-0.2-2.1-1.7-3.7-4.2-3.7c-2.2,0-3.8,1.4-4.3,3.7H514.8L514.8,61.4z"/>
				<path class="st0" d="M539,65h-8.6l-1.9,4.9h-2.6l7.7-19.4h2.3l7.7,19.4H541L539,65L539,65z M538.2,62.8l-3.4-8.9l-3.5,8.9H538.2
					L538.2,62.8z"/>
				<path class="st0" d="M552.4,58c-2.2,0-4,2.1-4,6.7v5.3H546V56h2.3v2.8c0.8-1.8,2.6-3,4.3-3c0.6,0,1.1,0.1,1.6,0.2l-0.1,2.3
					C553.7,58.1,553,57.9,552.4,58L552.4,58z"/>
				<path class="st0" d="M562.6,70.2c-2.4,0-4.1-1.3-4.1-4.4v-7.7h-2.6V56h2.6v-4.2h2.3V56h3.7v2.1h-3.7v7.8c0,1.5,0.8,2.2,2,2.2
					c0.5,0,1.2-0.1,1.7-0.4l0.2,2.2C564.1,70.1,563.3,70.2,562.6,70.2L562.6,70.2z"/>
				<path class="st0" d="M566.8,66.1l2-0.9c0.5,1.6,1.6,3,3.8,3c1.7,0,2.8-1,2.8-2.1c0-3.6-8-1.3-8-6.6c0-2.2,1.9-3.7,4.9-3.7
					c2.5,0,4.6,1.4,5.2,3.4l-2,0.9c-0.4-1.4-1.8-2.3-3.3-2.3c-1.6,0-2.6,0.6-2.6,1.7c0,3,8.1,0.8,8.1,6.6c0,2.4-2,4.2-5.1,4.2
					C569.3,70.2,567.5,68,566.8,66.1L566.8,66.1z"/>
			</g>
		</g>
	</g>
</g>
</svg>
