<svg width="33" height="26" viewBox="0 0 33 26" fill="none" xmlns="http://www.w3.org/2000/svg">
<path d="M30.48 0V5.44H27.36C24.9067 5.44 23.68 6.66667 23.68 9.12V11.68H25.04C27.1733 11.68 28.9333 12.32 30.32 13.6C31.76 14.88 32.48 16.5067 32.48 18.48C32.48 20.6133 31.76 22.3467 30.32 23.68C28.9333 25.0133 27.1733 25.68 25.04 25.68C22.8533 25.68 21.0667 25.0133 19.68 23.68C18.2933 22.2933 17.6 20.4533 17.6 18.16V8.96C17.6 2.98667 20.5867 0 26.56 0H30.48ZM12.88 0V5.44H9.76C7.30667 5.44 6.08 6.66667 6.08 9.12V11.68H7.44C9.57333 11.68 11.3333 12.32 12.72 13.6C14.16 14.88 14.88 16.5067 14.88 18.48C14.88 20.6133 14.16 22.3467 12.72 23.68C11.3333 25.0133 9.57333 25.68 7.44 25.68C5.25333 25.68 3.46667 25.0133 2.08 23.68C0.693334 22.2933 0 20.4533 0 18.16V8.96C0 2.98667 2.98667 0 8.96 0H12.88Z" fill="black"/>
</svg>
