<svg width="33" height="27" viewBox="0 0 33 27" fill="none" xmlns="http://www.w3.org/2000/svg">
<path d="M30.7998 0.879883V6.31988H27.6798C25.2265 6.31988 23.9998 7.54655 23.9998 9.99988V12.5599H25.3598C27.4932 12.5599 29.2532 13.1999 30.6398 14.4799C32.0798 15.7599 32.7998 17.3866 32.7998 19.3599C32.7998 21.4932 32.0798 23.2266 30.6398 24.5599C29.2532 25.8932 27.4932 26.5599 25.3598 26.5599C23.1732 26.5599 21.3865 25.8932 19.9998 24.5599C18.6132 23.1732 17.9198 21.3332 17.9198 19.0399V9.83988C17.9198 3.86655 20.9065 0.879883 26.8798 0.879883H30.7998ZM13.1998 0.879883V6.31988H10.0798C7.62649 6.31988 6.39983 7.54655 6.39983 9.99988V12.5599H7.75982C9.89316 12.5599 11.6532 13.1999 13.0398 14.4799C14.4798 15.7599 15.1998 17.3866 15.1998 19.3599C15.1998 21.4932 14.4798 23.2266 13.0398 24.5599C11.6532 25.8932 9.89316 26.5599 7.75982 26.5599C5.57316 26.5599 3.78649 25.8932 2.39982 24.5599C1.01316 23.1732 0.319824 21.3332 0.319824 19.0399V9.83988C0.319824 3.86655 3.30649 0.879883 9.27983 0.879883H13.1998Z" fill="white"/>
</svg>
